IT IS A DVDRIP............

General
Complete name                    : Wrong Turn At Tahoe.2010.DvdRip~VKS3385
Format                           : Matroska
File size                        : 696 MiB
Duration                         : 1h 26mn
Overall bit rate                 : 1 123 Kbps
Encoded date                     : UTC 2010-07-22 06:07:42
Writing application              : mkvmerge v4.1.1 ('Bouncin' Back') built on Jul  3 2010 22:54:08
Writing library                  : libebml v1.0.0 + libmatroska v1.0.0

Video
ID                               : 1
Format                           : MPEG-4 Visual
Format profile                   : Advanced Simple@L5
Format settings, BVOP            : Yes
Format settings, QPel            : No
Format settings, GMC             : No warppoints
Format settings, Matrix          : Default (H.263)
Codec ID                         : XVID
Codec ID/Hint                    : XviD
Duration                         : 1h 26mn
Bit rate                         : 973 Kbps
Width                            : 720 pixels
Height                           : 304 pixels
Display aspect ratio             : 2.35:1
Frame rate                       : 25.000 fps
Original frame rate              : 23.976 fps
Color space                      : YUV
Chroma subsampling               : 4:2:0
Bit depth                        : 8 bits
Scan type                        : Progressive
Bits/(Pixel*Frame)               : 0.178
Stream size                      : 603 MiB (87%)
Writing library                  : XviD 1.2.1 (UTC 2008-12-04)

Audio
ID                               : 2
Format                           : MPEG Audio
Format version                   : Version 1
Format profile                   : Layer 3
Mode                             : Joint stereo
Mode extension                   : MS Stereo
Codec ID                         : A_MPEG/L3
Codec ID/Hint                    : MP3
Duration                         : 1h 26mn
Bit rate mode                    : Constant
Bit rate                         : 128 Kbps
Channel(s)                       : 2 channels
Sampling rate                    : 44.1 KHz
Video delay                      : 6s 200ms
Stream size                      : 79.3 MiB (11%)


Screenshots:
 
http://img822.imageshack.us/img822/3415/wtatmkvsnapshot00145020.jpg
 
http://img541.imageshack.us/img541/874/wtatmkvsnapshot00241220.jpg
 
http://img214.imageshack.us/img214/5899/wtatmkvsnapshot00334920.jpg
 
http://img441.imageshack.us/img441/5655/wtatmkvsnapshot00531520.jpg
 
http://img541.imageshack.us/img541/5899/wtatmkvsnapshot01073220.jpg
 
http://img214.imageshack.us/img214/1570/wtatmkvsnapshot01194420.jpg
 
http://img541.imageshack.us/img541/6827/wtatmkvsnapshot00075020.jpg